<svg xmlns="http://www.w3.org/2000/svg" xmlns:xlink="http://www.w3.org/1999/xlink" width="168" zoomAndPan="magnify" viewBox="0 0 126 36.000001" height="48" preserveAspectRatio="xMidYMid meet" version="1.0"><defs><g/></defs><g fill="#000000" fill-opacity="1"><g transform="translate(25.688598, 23.410833)"><g><path d="M 15.734375 -17.628906 C 15.605469 -18.617188 13.734375 -18.691406 13.230469 -18.109375 C 13.152344 -18.035156 13.050781 -17.808594 12.898438 -17.679688 C 12.648438 -17.453125 12.746094 -17.554688 12.445312 -17.453125 C 11.734375 -17.25 11.027344 -17.046875 10.320312 -16.820312 C 9.8125 -16.667969 9.230469 -16.566406 8.726562 -16.339844 C 8.421875 -16.214844 8.246094 -16.0625 7.917969 -15.960938 C 6.828125 -15.65625 5.664062 -15.429688 4.730469 -14.949219 C 4.097656 -14.621094 3.3125 -14.390625 3.261719 -13.507812 C 3.261719 -13.253906 3.363281 -13.050781 3.492188 -12.824219 C 3.640625 -12.519531 3.84375 -12.417969 4.074219 -12.242188 L 4.601562 -11.761719 C 4.933594 -11.457031 5.488281 -11.027344 5.945312 -11.054688 C 5.96875 -11.054688 6.398438 -11.203125 6.425781 -11.253906 C 6.652344 -11.535156 5.867188 -12.117188 5.714844 -12.316406 C 5.4375 -12.671875 5.035156 -13.230469 5.160156 -13.710938 C 5.4375 -14.644531 7.234375 -14.972656 8.042969 -15.203125 C 8.675781 -15.378906 9.28125 -15.707031 9.914062 -15.882812 C 10.625 -16.085938 11.304688 -16.1875 12.015625 -16.464844 C 10.472656 -14.011719 9.511719 -11.179688 8.523438 -8.5 C 7.488281 -5.691406 6.5 -2.832031 5.160156 -0.152344 C 4.855469 0.480469 4.074219 2.402344 3.085938 1.871094 C 2.578125 1.617188 2.328125 0.910156 2.148438 0.429688 C 1.871094 -0.253906 1.644531 -0.988281 1.441406 -1.695312 C 1.0625 -3.085938 0.910156 -4.476562 0.734375 -5.917969 C 0.683594 -6.171875 0.582031 -6.957031 0.175781 -6.828125 C -0.175781 -6.703125 0.101562 -4.730469 0.0742188 -4.402344 C 0 -2.984375 0.101562 -1.542969 0.457031 -0.152344 C 0.785156 1.164062 1.441406 2.503906 2.679688 3.1875 C 3.238281 3.492188 3.921875 3.691406 4.554688 3.691406 C 5.210938 3.691406 5.589844 3.3125 5.945312 2.832031 C 7.511719 0.808594 8.398438 -1.617188 9.359375 -3.972656 C 9.636719 -4.628906 9.789062 -5.261719 9.964844 -5.894531 C 10.144531 -6.601562 10.523438 -7.285156 10.800781 -7.96875 C 11.332031 -9.28125 11.863281 -10.597656 12.46875 -11.914062 L 13.53125 -14.0625 C 13.785156 -14.519531 13.808594 -14.921875 14.113281 -15.328125 C 14.570312 -15.882812 15.023438 -16.414062 15.480469 -16.996094 C 15.605469 -17.175781 15.757812 -17.375 15.734375 -17.628906 Z M 10.496094 -9.15625 C 10.015625 -8.070312 9.484375 -7.15625 9.054688 -6.046875 L 10.648438 -10.21875 C 10.875 -10.851562 11.179688 -11.433594 11.484375 -12.039062 C 11.105469 -11.15625 10.902344 -10.015625 10.496094 -9.15625 Z M 10.496094 -9.15625 "/></g></g></g><g fill="#000000" fill-opacity="1"><g transform="translate(37.449316, 23.410833)"><g><path d="M 11.636719 -6.296875 C 11.636719 -6.296875 11.660156 -6.273438 11.636719 -6.324219 C 11.507812 -6.5 11.332031 -6.375 11.15625 -6.324219 C 10.421875 -6.171875 9.664062 -5.996094 8.902344 -5.867188 C 9.179688 -6.777344 9.460938 -7.738281 9.5625 -8.675781 C 9.613281 -9.03125 9.636719 -9.410156 9.5625 -9.761719 C 9.511719 -9.992188 9.433594 -10.21875 9.308594 -10.421875 C 9.308594 -10.421875 9.003906 -10.800781 9.082031 -10.597656 L 9.054688 -10.625 L 8.953125 -10.824219 L 9.054688 -10.722656 C 9.082031 -10.875 8.652344 -11.15625 8.652344 -11.15625 C 8.019531 -11.785156 7.15625 -12.265625 6.296875 -11.785156 C 5.765625 -11.484375 5.335938 -10.976562 4.984375 -10.472656 C 4.855469 -10.292969 4.730469 -10.09375 4.628906 -9.890625 C 4.527344 -9.6875 4.375 -9.03125 4.222656 -8.929688 C 4.097656 -8.828125 3.71875 -8.800781 3.542969 -8.699219 C 3.289062 -8.601562 3.058594 -8.472656 2.859375 -8.320312 C 2.378906 -8.019531 2 -7.589844 1.644531 -7.15625 C 1.035156 -6.347656 0.734375 -5.4375 0.304688 -4.628906 C -0.507812 -3.085938 0.378906 -1.0625 1.871094 -0.328125 C 2.351562 -0.101562 2.910156 0 3.414062 -0.0507812 C 3.945312 -0.125 4.453125 -0.40625 4.855469 -0.707031 C 5.234375 -0.988281 6.070312 -1.492188 6.222656 -1.921875 C 6.222656 -1.949219 6.171875 -1.921875 6.097656 -1.847656 L 6.828125 -2.707031 C 6.855469 -2.679688 6.652344 -2.429688 6.652344 -2.429688 C 6.828125 -2.351562 7.738281 -3.691406 7.839844 -3.792969 C 8.019531 -4.097656 8.195312 -4.425781 8.398438 -4.730469 C 8.574219 -4.957031 8.523438 -4.933594 8.777344 -5.035156 C 8.75 -5.007812 9.082031 -5.109375 9.132812 -5.109375 C 9.410156 -5.160156 12.367188 -5.363281 11.636719 -6.296875 Z M 2.882812 -1.1875 L 2.859375 -1.1875 C 0.757812 -0.886719 3.1875 -5.335938 3.238281 -5.589844 L 3.085938 -5.363281 C 3.464844 -6.121094 3.820312 -6.726562 3.996094 -6.929688 C 4.273438 -5.664062 5.640625 -5.183594 6.753906 -5.035156 C 6.019531 -3.566406 4.652344 -1.519531 2.882812 -1.1875 Z M 7.867188 -8.195312 C 7.6875 -7.488281 7.539062 -6.550781 7.15625 -5.917969 C 7.03125 -5.664062 7.109375 -5.742188 6.855469 -5.691406 C 6.703125 -5.640625 6.375 -5.691406 6.222656 -5.714844 C 5.945312 -5.742188 5.613281 -5.792969 5.414062 -5.96875 C 5.058594 -6.273438 5.109375 -6.753906 5.160156 -7.183594 C 5.210938 -7.613281 5.335938 -8.019531 5.488281 -8.421875 C 5.566406 -8.574219 6.046875 -9.382812 5.96875 -9.535156 C 5.945312 -9.613281 5.664062 -9.15625 5.640625 -9.132812 C 5.792969 -9.410156 5.945312 -9.5625 6.070312 -9.738281 C 6.046875 -9.738281 6.070312 -9.761719 6.097656 -9.8125 L 6.097656 -9.789062 L 6.121094 -9.839844 C 6.121094 -9.839844 6.121094 -9.863281 6.144531 -9.863281 C 6.527344 -10.371094 7.460938 -11.507812 7.96875 -10.722656 C 8.347656 -10.066406 7.992188 -8.828125 7.867188 -8.195312 Z M 6.121094 -9.839844 L 6.144531 -9.863281 C 6.144531 -9.839844 6.121094 -9.839844 6.121094 -9.839844 Z M 6.121094 -9.839844 "/></g></g></g><g fill="#000000" fill-opacity="1"><g transform="translate(47.338438, 23.410833)"><g><path d="M 9.6875 -6.246094 C 9.6875 -6.222656 9.6875 -6.222656 9.664062 -6.246094 L 9.664062 -6.273438 C 9.257812 -6.957031 8.726562 -6.019531 8.5 -5.691406 C 8.070312 -5.109375 7.664062 -4.554688 7.207031 -4.023438 C 6.828125 -3.566406 6.425781 -3.109375 6.121094 -2.628906 C 6.121094 -2.578125 6.070312 -2.453125 6.070312 -2.453125 C 5.96875 -2.300781 5.816406 -2.175781 5.691406 -2.023438 C 5.464844 -1.796875 5.234375 -1.542969 4.984375 -1.316406 C 4.601562 -0.960938 2.480469 1.035156 2.199219 -0.253906 C 2.046875 -0.886719 2.25 -1.667969 2.378906 -2.277344 C 2.453125 -2.605469 2.53125 -2.910156 2.578125 -3.238281 C 2.628906 -3.492188 2.554688 -3.742188 2.679688 -3.996094 C 2.757812 -4.148438 2.78125 -4.121094 2.960938 -4.171875 L 3.390625 -4.324219 C 3.667969 -4.425781 3.945312 -4.527344 4.199219 -4.679688 C 4.578125 -4.90625 4.933594 -5.183594 5.261719 -5.464844 C 6.046875 -6.121094 6.878906 -6.90625 7.207031 -7.890625 C 7.386719 -8.449219 7.410156 -9.054688 7.058594 -9.535156 C 6.726562 -9.964844 6.171875 -10.191406 5.664062 -10.292969 C 4.300781 -10.546875 3.261719 -9.761719 2.480469 -8.726562 C 1.519531 -7.539062 0.835938 -6.070312 0.507812 -4.578125 C 0.328125 -3.84375 0.226562 -3.109375 0.101562 -2.351562 C -0.0234375 -1.59375 -0.101562 -0.886719 0.304688 -0.175781 C 0.277344 -0.429688 0.226562 -0.65625 0.226562 -0.886719 C 0.226562 -1.011719 0.277344 -1.136719 0.277344 -1.238281 C 0.277344 -1.289062 0.226562 -1.441406 0.226562 -1.519531 C 0.226562 -1.746094 0.277344 -1.921875 0.328125 -2.148438 C 0.355469 -2.378906 0.328125 -2.605469 0.355469 -2.832031 C 0.378906 -3.085938 0.480469 -3.289062 0.582031 -3.515625 C 0.65625 -3.71875 0.683594 -3.894531 0.757812 -4.097656 C 0.835938 -4.273438 0.886719 -4.476562 0.960938 -4.679688 C 0.988281 -4.804688 1.113281 -4.957031 1.1875 -5.109375 C 1.113281 -4.882812 0.960938 -4.679688 0.910156 -4.476562 C 0.835938 -4.171875 0.886719 -3.84375 0.859375 -3.542969 C 0.808594 -3.210938 0.707031 -2.882812 0.65625 -2.53125 C 0.605469 -2.199219 0.457031 -1.898438 0.40625 -1.566406 C 0.355469 -1.265625 0.253906 -1.035156 0.277344 -0.734375 C 0.277344 -0.554688 0.304688 -0.378906 0.328125 -0.226562 C 0.355469 -0.0234375 0.480469 0.101562 0.605469 0.253906 C 1.035156 0.757812 1.617188 1.164062 2.277344 1.339844 C 2.730469 1.46875 3.136719 1.441406 3.566406 1.214844 C 4.171875 0.886719 4.703125 0.378906 5.160156 -0.101562 C 5.589844 -0.582031 5.917969 -1.113281 6.296875 -1.617188 C 6.652344 -2.074219 7.082031 -2.503906 7.4375 -2.960938 L 8.800781 -4.730469 L 9.585938 -5.765625 C 9.710938 -5.917969 9.789062 -6.046875 9.6875 -6.246094 Z M 3.414062 -5.96875 C 3.441406 -6.019531 3.441406 -6.046875 3.441406 -6.046875 C 3.820312 -6.855469 4.097656 -7.714844 4.628906 -8.5 L 5.085938 -9.105469 C 5.183594 -9.230469 5.363281 -9.460938 5.539062 -9.511719 C 5.917969 -9.585938 6.019531 -8.929688 5.996094 -8.675781 L 5.894531 -8.144531 C 5.867188 -7.992188 5.917969 -7.890625 5.894531 -7.765625 C 5.84375 -7.613281 5.714844 -7.539062 5.640625 -7.410156 L 5.210938 -6.855469 C 4.628906 -6.171875 3.894531 -5.589844 3.085938 -5.160156 C 3.210938 -5.4375 3.289062 -5.714844 3.414062 -5.96875 Z M 3.414062 -5.96875 "/></g></g></g><g fill="#000000" fill-opacity="1"><g transform="translate(55.204207, 23.410833)"><g><path d="M 14.570312 -11.078125 C 14.492188 -11.964844 12.648438 -13.304688 12.117188 -12.21875 C 12.089844 -12.167969 12.066406 -11.9375 11.964844 -11.785156 C 11.6875 -11.304688 11.28125 -10.851562 10.925781 -10.394531 C 10.042969 -9.257812 9.15625 -8.121094 8.195312 -7.03125 L 6.855469 -5.566406 C 6.777344 -5.464844 5.589844 -4.273438 5.589844 -4.273438 C 5.691406 -4.222656 5.996094 -4.527344 6.070312 -4.578125 C 5.664062 -4.222656 3.996094 -2.730469 3.3125 -3.515625 C 2.730469 -4.171875 3.542969 -5.792969 3.820312 -6.449219 C 4.273438 -7.511719 4.753906 -8.601562 5.285156 -9.636719 C 6.347656 -11.660156 7.664062 -13.660156 9.179688 -15.378906 C 9.710938 -15.984375 10.546875 -17.074219 11.382812 -17.25 C 12.367188 -17.453125 11.507812 -15.402344 11.636719 -15.378906 C 11.660156 -15.378906 12.316406 -17.324219 11.433594 -17.324219 C 11.027344 -17.324219 10.472656 -16.769531 10.167969 -16.515625 C 9.789062 -16.164062 9.460938 -15.808594 9.132812 -15.453125 C 9.8125 -16.214844 11.433594 -18.007812 11.863281 -17.125 C 12.066406 -16.667969 11.863281 -15.933594 11.734375 -15.480469 C 11.457031 -14.519531 11.003906 -13.609375 10.445312 -12.746094 C 10.472656 -12.796875 10.851562 -13.507812 10.851562 -13.507812 C 10.75 -13.53125 9.761719 -12.015625 9.738281 -11.886719 C 9.738281 -11.835938 9.8125 -11.914062 9.890625 -11.964844 C 9.738281 -11.761719 9.6875 -11.609375 10.167969 -11.734375 C 11.003906 -11.964844 11.9375 -12.796875 12.546875 -13.378906 C 13.179688 -13.988281 13.9375 -14.847656 13.910156 -15.757812 C 13.910156 -16.113281 13.734375 -16.363281 13.710938 -16.695312 C 13.660156 -17.046875 13.660156 -17.300781 13.429688 -17.65625 C 12.773438 -18.667969 11.660156 -19.375 10.445312 -19.199219 C 9.359375 -19.070312 8.449219 -18.3125 7.6875 -17.578125 C 7.285156 -17.175781 6.929688 -16.746094 6.550781 -16.3125 C 6.296875 -16.011719 5.742188 -15.582031 5.640625 -15.175781 L 5.84375 -15.378906 C 5.539062 -15 5.285156 -14.59375 5.058594 -14.289062 C 5.035156 -14.289062 5.210938 -14.59375 5.210938 -14.59375 C 5.035156 -14.671875 3.996094 -13 3.894531 -12.847656 C 3.414062 -12.117188 2.984375 -11.382812 2.679688 -10.574219 C 2.378906 -9.761719 2 -8.953125 1.695312 -8.144531 C 1.492188 -7.636719 1.339844 -7.132812 1.214844 -6.625 C 1.1875 -6.476562 1.136719 -5.714844 1.214844 -5.84375 L 1.136719 -5.261719 L 1.136719 -5.714844 C 1.035156 -5.613281 1.136719 -5.109375 1.136719 -5.085938 C 1.085938 -3.414062 2.65625 -1.011719 4.554688 -1.238281 C 5.664062 -1.367188 6.578125 -2.378906 7.285156 -3.160156 C 8.398438 -4.453125 9.410156 -5.894531 10.292969 -7.359375 C 9.382812 -4.78125 8.523438 -2.199219 7.539062 0.328125 C 6.550781 2.78125 5.566406 5.386719 3.996094 7.539062 C 3.589844 8.070312 2.628906 9.207031 1.949219 8.421875 C 1.214844 7.613281 2.25 5.691406 2.628906 4.933594 C 3.1875 3.742188 3.894531 2.628906 4.703125 1.617188 C 4.832031 1.46875 6.046875 0.304688 5.261719 0.355469 C 4.882812 0.378906 4.425781 0.9375 4.171875 1.164062 C 3.820312 1.46875 3.492188 1.820312 3.109375 2.097656 C 2.125 2.910156 1.238281 3.894531 0.605469 5.007812 C -0.429688 6.878906 -0.226562 9.082031 1.949219 9.992188 C 2.605469 10.269531 3.492188 10.496094 4.171875 10.191406 C 4.855469 9.890625 5.4375 9.132812 5.867188 8.550781 C 6.675781 7.511719 7.207031 6.347656 7.816406 5.183594 C 8.398438 4.097656 9.082031 2.960938 9.410156 1.746094 C 9.738281 0.582031 10.34375 -0.53125 10.800781 -1.695312 L 12.316406 -5.414062 C 12.570312 -6.121094 12.898438 -6.804688 13.128906 -7.488281 C 13.277344 -7.890625 13.230469 -8.144531 13.40625 -8.5 C 13.734375 -9.105469 14.0625 -9.710938 14.367188 -10.320312 C 14.492188 -10.574219 14.59375 -10.800781 14.570312 -11.078125 Z M 3.464844 -10.976562 C 3.972656 -11.8125 4.476562 -12.671875 5.035156 -13.457031 C 5.4375 -14.0625 5.917969 -14.921875 6.5 -15.402344 C 6.273438 -15.203125 6.070312 -14.746094 5.917969 -14.542969 C 5.589844 -14.113281 5.285156 -13.660156 4.984375 -13.230469 C 4.273438 -12.140625 3.515625 -10.976562 2.984375 -9.789062 C 2.53125 -8.777344 1.972656 -7.664062 1.71875 -6.550781 C 2.023438 -8.09375 2.65625 -9.585938 3.464844 -10.976562 Z M 13.203125 -8.878906 C 12.796875 -7.765625 12.394531 -6.652344 11.9375 -5.589844 C 11.558594 -4.679688 11.054688 -3.792969 10.75 -2.882812 C 11.507812 -5.132812 12.445312 -7.359375 13.457031 -9.511719 Z M 9.941406 -1.011719 C 9.863281 -0.910156 9.789062 -0.808594 9.738281 -0.707031 L 9.992188 -1.289062 C 10.042969 -1.390625 10.144531 -1.492188 10.242188 -1.59375 C 10.144531 -1.417969 10.066406 -1.1875 9.941406 -1.011719 Z M 9.710938 -0.632812 L 9.738281 -0.707031 C 9.710938 -0.683594 9.710938 -0.65625 9.710938 -0.632812 Z M 7.917969 -13.9375 C 7.917969 -13.910156 7.890625 -13.886719 7.867188 -13.886719 C 7.890625 -13.886719 7.917969 -13.910156 7.917969 -13.9375 Z M 7.917969 -13.9375 "/></g></g></g><g fill="#000000" fill-opacity="1"><g transform="translate(69.291779, 23.410833)"><g><path d="M 10.371094 -6.144531 C 10.21875 -6.804688 9.613281 -5.917969 9.484375 -5.765625 L 8.09375 -3.894531 L 6.726562 -2.097656 L 5.996094 -1.164062 C 5.917969 -1.0625 5.363281 -0.355469 5.414062 -0.355469 C 5.464844 -0.40625 5.539062 -0.40625 5.613281 -0.480469 C 5.234375 -0.0742188 3.84375 1.1875 3.589844 0.886719 C 3.390625 0.632812 3.945312 -0.429688 4.023438 -0.683594 C 4.300781 -1.417969 4.554688 -2.175781 4.855469 -2.882812 C 5.183594 -3.617188 5.566406 -4.351562 5.867188 -5.085938 C 6.171875 -5.867188 5.714844 -6.144531 4.984375 -6.324219 C 4.652344 -6.398438 4.25 -6.398438 3.871094 -6.449219 C 3.871094 -6.425781 3.894531 -6.425781 3.894531 -6.425781 C 4.222656 -6.375 4.703125 -6.347656 5.109375 -6.222656 C 4.503906 -6.398438 3.742188 -6.324219 3.261719 -6.449219 C 2.933594 -6.527344 2.730469 -6.527344 2.78125 -6.90625 C 2.832031 -7.410156 3.363281 -7.941406 3.542969 -8.421875 C 3.542969 -8.398438 3.363281 -7.941406 3.390625 -7.941406 C 3.515625 -7.890625 3.71875 -8.601562 3.71875 -8.699219 C 3.691406 -8.828125 3.390625 -9.207031 3.363281 -9.054688 L 3.414062 -8.980469 C 2.199219 -9.8125 0.757812 -8.09375 1.011719 -6.855469 C 1.0625 -6.675781 1.164062 -6.578125 1.238281 -6.375 C 1.289062 -6.222656 1.238281 -6.046875 1.390625 -5.84375 C 1.921875 -5.183594 2.882812 -5.160156 3.640625 -5.3125 C 3.515625 -5.132812 2.175781 -2.300781 2.25 -2.277344 L 2.074219 -1.644531 C 2.046875 -1.667969 2.148438 -1.871094 2.097656 -1.871094 C 1.921875 -1.898438 1.566406 -0.429688 1.542969 -0.304688 C 1.441406 0.304688 1.46875 0.835938 1.71875 1.390625 C 1.871094 1.746094 2.046875 2.046875 2.378906 2.25 C 2.679688 2.453125 3.058594 2.554688 3.414062 2.480469 C 3.542969 2.429688 4.023438 2.097656 3.894531 2.125 L 4.074219 2.046875 C 4.046875 2.074219 4.023438 2.097656 4.023438 2.125 C 4.097656 2.148438 5.261719 1.214844 5.414062 1.113281 C 6.222656 0.429688 6.878906 -0.40625 7.488281 -1.238281 C 8.09375 -2.097656 8.726562 -2.960938 9.308594 -3.820312 C 9.585938 -4.222656 9.839844 -4.628906 10.042969 -5.058594 C 10.191406 -5.363281 10.445312 -5.792969 10.371094 -6.144531 Z M 2.808594 -3.109375 C 2.984375 -3.566406 3.1875 -3.996094 3.414062 -4.425781 C 3.464844 -4.503906 3.820312 -5.414062 3.996094 -5.464844 C 3.871094 -5.386719 3.339844 -4.148438 3.210938 -3.921875 L 2.730469 -2.808594 C 2.480469 -2.199219 2.199219 -1.566406 2.023438 -0.910156 C 2.199219 -1.667969 2.503906 -2.402344 2.808594 -3.109375 Z M 2.199219 1.746094 C 2.351562 1.949219 2.554688 2.148438 2.832031 2.25 C 2.605469 2.175781 2.402344 2.046875 2.25 1.898438 C 2.277344 1.898438 2.277344 1.921875 2.277344 1.949219 C 2.125 1.746094 1.921875 1.316406 1.898438 1.238281 C 1.820312 0.9375 1.796875 0.582031 1.820312 0.277344 C 1.820312 0.0234375 1.847656 -0.175781 1.898438 -0.40625 L 1.898438 -0.378906 C 1.847656 -0.0507812 1.820312 0.277344 1.847656 0.632812 L 1.847656 0.757812 C 1.820312 0.734375 1.820312 0.707031 1.820312 0.707031 C 1.820312 0.707031 1.820312 0.734375 1.847656 0.785156 L 1.847656 0.808594 L 1.949219 1.339844 L 1.871094 1.011719 C 1.921875 1.164062 2.046875 1.441406 2.175781 1.71875 L 2.148438 1.695312 C 2.148438 1.71875 2.175781 1.746094 2.199219 1.769531 Z M 2.910156 -6.601562 C 3.035156 -6.5 3.261719 -6.476562 3.492188 -6.449219 C 3.289062 -6.476562 3.109375 -6.527344 2.984375 -6.625 C 2.984375 -6.625 2.832031 -6.753906 2.808594 -6.804688 C 2.808594 -6.753906 2.859375 -6.625 2.910156 -6.601562 Z M 5.566406 -4.628906 L 5.035156 -3.515625 L 5.566406 -4.652344 Z M 1.921875 -0.480469 C 1.921875 -0.457031 1.898438 -0.429688 1.898438 -0.40625 L 1.898438 -0.429688 C 1.898438 -0.457031 1.921875 -0.457031 1.921875 -0.480469 Z M 5.589844 -4.703125 L 5.589844 -4.679688 L 5.566406 -4.679688 Z M 5.589844 -4.703125 L 5.589844 -4.679688 L 5.566406 -4.679688 Z M 1.949219 -0.808594 C 1.949219 -0.835938 1.972656 -0.859375 1.972656 -0.910156 C 1.972656 -0.859375 1.949219 -0.835938 1.949219 -0.808594 Z M 2.046875 1.519531 C 2.046875 1.519531 2.074219 1.542969 2.074219 1.566406 C 2.074219 1.542969 2.046875 1.542969 2.046875 1.519531 Z M 2.832031 -6.855469 C 2.808594 -6.855469 2.808594 -6.828125 2.808594 -6.828125 Z M 2.832031 -6.855469 "/></g></g></g><g fill="#000000" fill-opacity="1"><g transform="translate(77.815137, 23.410833)"><g><path d="M 12.875 -6.097656 C 12.847656 -6.652344 12.394531 -6.171875 12.242188 -5.96875 C 11.914062 -5.488281 11.609375 -4.984375 11.304688 -4.503906 C 10.625 -3.464844 9.941406 -2.429688 9.15625 -1.441406 C 6.550781 1.769531 8.371094 -3.945312 8.167969 -3.894531 C 8.070312 -3.871094 7.992188 -3.492188 7.96875 -3.414062 C 8.167969 -4.324219 8.550781 -5.414062 9.03125 -6.296875 C 9.308594 -6.855469 9.636719 -7.308594 9.132812 -7.917969 C 8.195312 -9.054688 7.109375 -8.019531 6.5 -7.234375 C 6.246094 -8.195312 5.742188 -9.613281 4.503906 -9.613281 C 3.945312 -9.613281 3.617188 -9.332031 3.238281 -9.003906 C 3.011719 -8.851562 2.832031 -8.828125 2.628906 -8.652344 C 2.300781 -8.421875 2.074219 -8.070312 1.847656 -7.765625 C 0.988281 -6.5 0.378906 -4.90625 0.101562 -3.441406 C -0.0234375 -2.730469 -0.0742188 -1.949219 0.125 -1.238281 C 0.253906 -0.835938 0.707031 0.0742188 1.289062 0 C 1.316406 0 1.265625 -0.0234375 1.1875 -0.0742188 C 1.542969 0.0234375 1.949219 -0.0234375 2.25 -0.226562 C 2.277344 -0.175781 1.972656 -0.0507812 1.972656 -0.0507812 C 2.25 0.378906 4.324219 -2.125 4.476562 -2.351562 C 4.804688 -2.808594 5.035156 -3.289062 5.335938 -3.769531 C 5.566406 -4.121094 5.917969 -4.578125 6.171875 -4.957031 C 6.144531 -4.78125 6.144531 -4.554688 6.144531 -4.554688 C 5.691406 -3.109375 5.261719 -1.542969 5.867188 -0.0507812 C 6.144531 0.707031 6.828125 1.417969 7.6875 1.265625 C 8.449219 1.136719 9.082031 0.40625 9.535156 -0.175781 C 10.09375 -0.835938 10.574219 -1.566406 11.054688 -2.328125 C 11.457031 -3.011719 11.835938 -3.691406 12.167969 -4.453125 C 12.367188 -4.933594 12.925781 -5.515625 12.875 -6.097656 Z M 5.613281 -5.917969 C 5.488281 -5.742188 5.363281 -5.566406 5.261719 -5.386719 L 4.601562 -4.453125 C 4.171875 -3.820312 3.71875 -3.210938 3.238281 -2.628906 C 3.109375 -2.453125 2.503906 -1.667969 2.25 -1.746094 C 1.871094 -1.871094 2.277344 -3.1875 2.328125 -3.390625 C 2.402344 -3.742188 3.742188 -7.636719 4.097656 -7.714844 C 3.640625 -7.738281 2.175781 -3.160156 2.097656 -2.78125 C 2.300781 -4.023438 2.757812 -5.234375 3.261719 -6.375 C 3.542969 -6.957031 4.171875 -8.5 5.007812 -8.5 C 5.464844 -8.5 5.566406 -7.5625 5.640625 -7.257812 C 5.613281 -7.308594 5.386719 -8.042969 5.363281 -8.019531 C 5.234375 -7.917969 5.742188 -6.527344 5.742188 -6.324219 C 5.742188 -6.121094 5.742188 -6.121094 5.613281 -5.917969 Z M 6.195312 -4.679688 C 6.195312 -4.679688 6.273438 -5.035156 6.296875 -5.109375 L 6.425781 -5.285156 Z M 5.816406 -6.246094 L 5.816406 -6.5 C 5.894531 -6.398438 5.894531 -6.324219 5.816406 -6.246094 Z M 5.816406 -6.246094 "/></g></g></g><g fill="#000000" fill-opacity="1"><g transform="translate(88.842395, 23.410833)"><g><path d="M 15.378906 -6.070312 C 15.378906 -6.070312 15.402344 -6.046875 15.378906 -6.097656 C 15.203125 -6.652344 14.089844 -5.132812 13.960938 -4.984375 C 13.304688 -4.199219 12.648438 -3.390625 11.964844 -2.628906 C 11.6875 -2.328125 10.699219 -0.960938 10.21875 -1.0625 C 9.992188 -1.113281 10.167969 -2.328125 10.167969 -2.328125 C 10.117188 -2.277344 10.09375 -2.226562 10.066406 -2.175781 C 10.269531 -3.136719 10.851562 -4.273438 11.253906 -5.234375 C 11.6875 -6.324219 12.316406 -7.738281 11.988281 -8.953125 C 11.609375 -10.34375 10.167969 -9.636719 9.484375 -8.980469 C 9.230469 -8.726562 7.132812 -5.996094 7.15625 -5.816406 L 7.664062 -6.5 C 7.257812 -5.867188 6.878906 -5.261719 6.578125 -4.628906 C 6.828125 -5.515625 7.082031 -6.425781 7.386719 -7.308594 C 7.613281 -7.917969 7.992188 -8.550781 8.167969 -9.179688 C 8.371094 -9.992188 7.664062 -11.105469 6.753906 -10.976562 C 6.097656 -10.902344 5.539062 -10.144531 5.210938 -9.613281 C 4.804688 -8.953125 4.324219 -8.347656 3.921875 -7.714844 C 3.441406 -6.929688 3.035156 -6.070312 2.628906 -5.261719 C 2.277344 -4.601562 2.097656 -3.84375 1.71875 -3.238281 C 1.769531 -3.515625 1.667969 -3.71875 1.667969 -3.972656 C 1.667969 -4.199219 1.769531 -4.476562 1.820312 -4.703125 C 1.898438 -5.058594 2.097656 -5.363281 2.175781 -5.714844 C 2.226562 -5.894531 2.175781 -5.96875 2.226562 -6.144531 C 2.25 -6.273438 2.378906 -6.425781 2.453125 -6.527344 C 2.628906 -6.777344 2.859375 -7.007812 3.011719 -7.257812 C 3.035156 -7.308594 3.085938 -7.359375 3.085938 -7.410156 C 3.1875 -7.765625 2.933594 -7.890625 2.808594 -8.070312 C 2.679688 -8.21875 2.554688 -8.550781 2.351562 -8.726562 C 2.199219 -8.851562 1.949219 -9.003906 1.769531 -8.929688 C 1.542969 -8.828125 1.644531 -8.699219 1.566406 -8.574219 C 1.46875 -8.320312 1.265625 -8.121094 1.136719 -7.890625 C 0.9375 -7.460938 0.757812 -7.03125 0.632812 -6.601562 C 0.328125 -5.714844 -0.0234375 -4.804688 0.0234375 -3.871094 C 0.0507812 -3.160156 -0.152344 -2.578125 0.378906 -1.949219 C 0.632812 -1.644531 1.617188 -0.988281 1.871094 -1.441406 C 1.898438 -1.492188 1.921875 -1.695312 1.921875 -1.769531 C 2 -2.023438 2.175781 -2.25 2.277344 -2.503906 C 2.53125 -3.011719 2.757812 -3.542969 3.035156 -4.074219 C 3.742188 -5.414062 4.273438 -6.703125 5.109375 -7.992188 C 5.363281 -8.371094 5.664062 -8.75 5.96875 -9.105469 C 6.046875 -9.179688 6.425781 -9.710938 6.476562 -9.6875 C 6.878906 -9.664062 6.070312 -8.121094 5.996094 -7.839844 C 5.664062 -6.980469 5.085938 -6.097656 4.984375 -5.183594 C 4.957031 -4.882812 5.035156 -4.78125 4.957031 -4.503906 C 4.882812 -4.199219 4.753906 -3.871094 4.78125 -3.542969 C 4.832031 -3.238281 4.957031 -2.960938 5.183594 -2.757812 C 5.996094 -1.972656 6.324219 -2.882812 6.675781 -3.492188 C 7.109375 -4.199219 7.511719 -5.210938 8.042969 -5.742188 C 8.878906 -6.550781 9.308594 -7.636719 10.144531 -8.421875 C 10.015625 -8.144531 9.308594 -6.425781 9.332031 -6.398438 C 9.382812 -6.449219 9.410156 -6.5 9.433594 -6.550781 C 9.332031 -6.273438 9.230469 -6.019531 9.15625 -5.765625 C 9.105469 -5.792969 9.207031 -5.996094 9.179688 -5.996094 C 9.03125 -6.019531 8.574219 -4.601562 8.550781 -4.503906 C 8.371094 -3.996094 8.296875 -3.515625 8.296875 -2.984375 C 8.296875 -2.503906 8.296875 -2.023438 8.371094 -1.519531 C 8.421875 -1.214844 8.5 -0.886719 8.652344 -0.605469 C 8.699219 -0.480469 9.054688 -0.125 9.054688 -0.175781 C 9.082031 -0.125 9.082031 -0.0742188 9.132812 -0.0507812 L 9.105469 -0.0742188 C 9.054688 0.125 10.117188 0.480469 10.292969 0.457031 C 11.179688 0.429688 12.066406 -0.757812 12.546875 -1.390625 C 13.253906 -2.25 13.886719 -3.1875 14.519531 -4.097656 C 14.847656 -4.578125 15.53125 -5.414062 15.378906 -6.070312 Z M 6.296875 -7.738281 L 6.324219 -7.738281 C 6.296875 -7.714844 6.273438 -7.664062 6.273438 -7.664062 C 5.96875 -7.03125 5.816406 -6.296875 5.566406 -5.613281 C 5.363281 -5.109375 5.109375 -4.503906 5.058594 -3.945312 C 5.058594 -4.527344 5.234375 -5.210938 5.414062 -5.714844 C 5.613281 -6.324219 5.917969 -6.90625 6.171875 -7.488281 C 6.273438 -7.6875 6.878906 -9.257812 6.777344 -9.664062 C 6.929688 -9.308594 6.476562 -8.121094 6.324219 -7.738281 L 6.324219 -7.765625 Z M 6.296875 -7.738281 "/></g></g></g></svg>